PathFileType	4	(X/Y/Z)	C:/Users/opensim2020/Desktop/walking_exp_matlab/subject01_walking08_straight_01.trc	
DataRate	CameraRate	NumFrames	NumMarkers	Units	OrigDataRate	OrigDataStartFrame	OrigNumFrames	
100.00	100.00	7	43	mm	100.00	1012	377	
Frame#	Time	LFHD			RFHD			LBHD			RBHD			C7			T10			CLAV			STRN			RBAK			LSHO			LUPA			LELB			LFRM			LWRA			LWRB			LFIN			RSHO			RUPA			RELB			RFRM			RWRA			RWRB			RFIN			LASI			RASI			LPSI			RPSI			LTHI			LKNE			LTIB			LANK			LHEE			LTOE			RTHI			RKNE			RTIB			RANK			RHEE			RTOE			*39			*40			*41			*42			
		X1	Y1	Z1	X2	Y2	Z2	X3	Y3	Z3	X4	Y4	Z4	X5	Y5	Z5	X6	Y6	Z6	X7	Y7	Z7	X8	Y8	Z8	X9	Y9	Z9	X10	Y10	Z10	X11	Y11	Z11	X12	Y12	Z12	X13	Y13	Z13	X14	Y14	Z14	X15	Y15	Z15	X16	Y16	Z16	X17	Y17	Z17	X18	Y18	Z18	X19	Y19	Z19	X20	Y20	Z20	X21	Y21	Z21	X22	Y22	Z22	X23	Y23	Z23	X24	Y24	Z24	X25	Y25	Z25	X26	Y26	Z26	X27	Y27	Z27	X28	Y28	Z28	X29	Y29	Z29	X30	Y30	Z30	X31	Y31	Z31	X32	Y32	Z32	X33	Y33	Z33	X34	Y34	Z34	X35	Y35	Z35	X36	Y36	Z36	X37	Y37	Z37	X38	Y38	Z38	X39	Y39	Z39	X40	Y40	Z40	X41	Y41	Z41	X42	Y42	Z42	X43	Y43	Z43	

283	2.820	-1077.76685	274.97034	1672.63806	-963.50415	284.92575	1680.07764	-1073.24646	173.08012	1600.38916	-952.37537	180.68486	1606.15393	-1030.48157	169.28676	1423.93225	-1016.19580	146.21956	1129.07422	-1027.54651	315.29288	1361.25769	-1034.11975	364.02563	1206.84460	-951.94159	123.02980	1227.08081	-1189.64722	256.72388	1386.66296	-1274.90710	260.33475	1202.35815	-1279.50464	288.09293	1051.23792	-1297.67749	378.82227	977.16992	-1273.22937	506.96881	926.30878	-1296.75488	464.78806	890.54755	-1302.79456	542.34412	857.64374	-875.28253	252.62106	1384.25916	-775.69525	197.96941	1182.74805	-776.74701	196.86945	1058.48633	-747.43359	216.57118	939.82672	-768.02844	286.95068	817.40881	-729.29279	243.40115	821.33655	-731.61847	275.09094	741.66815	-1129.39380	315.32193	921.32550	-912.26038	330.53879	931.89172	-1059.43701	133.00093	936.66272	-915.06079	145.12465	940.10632	-1172.59961	223.03802	594.24481	-1156.17041	181.05177	463.77856	-1165.60718	77.45071	303.91077	-1114.36121	-14.37259	101.59529	-1063.01685	-67.36590	86.61617	-1110.33850	119.43852	34.41166	-840.84448	337.48465	605.57568	-868.22345	386.19492	457.37564	-855.88556	379.72888	282.48810	-894.43591	412.17151	77.81081	-947.26971	371.04446	35.23787	-889.17157	554.14233	48.48331	-986.61548	264.69995	1709.65833	-3101.88232	1973.19983	1023.39465	-3140.81250	2012.54736	1022.01453			 
284	2.830	-1075.31067	281.04294	1673.14819	-961.15991	291.13837	1680.50024	-1070.69519	179.14793	1600.94885	-949.77081	186.98979	1606.66370	-1028.26343	175.35770	1424.28186	-1014.32495	152.92821	1129.42432	-1025.26355	321.63562	1361.89807	-1031.92188	370.77835	1207.65820	-950.12457	129.65941	1227.16711	-1187.41284	263.18033	1387.36194	-1272.58997	266.33917	1203.07031	-1277.31909	293.89432	1051.95044	-1295.64697	384.15482	977.28949	-1271.35010	511.88522	925.46259	-1294.94788	469.44504	890.07550	-1301.21057	546.83887	856.83765	-873.01794	258.69110	1384.58044	-773.75513	204.51762	1182.84253	-774.89728	203.69283	1058.63916	-745.70367	223.25551	940.00372	-766.45038	293.55896	817.38141	-727.61810	250.04768	821.49677	-729.95544	281.86362	741.93945	-1127.54846	322.58490	921.47693	-910.65088	337.69775	932.42120	-1057.78467	140.37694	937.41101	-913.39954	152.34436	941.17365	-1170.79736	230.34613	594.32428	-1154.76855	188.19270	463.92273	-1164.94971	82.29112	305.51852	-1114.67249	-12.53622	104.51850	-1063.59106	-65.77982	90.33827	-1110.24976	119.75597	34.56427	-839.46039	344.71237	606.25720	-866.86731	392.16312	457.30667	-854.04315	384.18393	282.49121	-894.34082	413.02853	77.09105	-946.79883	372.03467	35.25880	-888.96771	555.04260	46.68479	-984.04376	270.91193	1710.17200	-3101.98950	1973.06104	1023.28937	-3140.69043	2012.45972	1022.02820			 
285	2.840	-1072.96143	287.13538	1673.79150	-958.69287	297.37363	1681.06201	-1068.21094	185.20369	1601.60510	-947.27301	193.19366	1607.20593	-1026.11401	181.65216	1424.58728	-1012.55481	159.74353	1129.78174	-1022.91595	328.00681	1362.62512	-1029.69531	377.53302	1208.55859	-948.30023	136.26846	1227.40967	-1185.09473	269.71234	1388.15759	-1270.30957	272.45569	1203.87134	-1275.21216	299.55896	1052.75598	-1293.53699	389.27289	977.47437	-1269.45654	516.65015	924.60199	-1293.10278	473.89935	889.58270	-1299.34924	551.02448	855.60132	-870.70685	264.78189	1385.12769	-771.79767	210.60718	1183.04578	-773.01355	210.36783	1059.01587	-743.90967	230.25165	940.43127	-764.87219	300.58301	817.93500	-725.95392	257.28439	821.78668	-728.47443	288.62775	742.10718	-1125.69287	330.04483	921.80811	-908.89722	344.85660	933.06439	-1056.30078	147.82358	938.24890	-911.94250	159.53899	942.48688	-1168.99170	237.95496	594.45508	-1153.44604	195.80107	464.09540	-1164.22803	87.71378	307.16965	-1114.99048	-10.45030	107.59534	-1063.96265	-63.99893	94.24012	-1110.29456	119.88783	34.44207	-838.06366	351.94699	606.93964	-865.57495	397.99417	457.38333	-852.41333	388.23044	282.15744	-894.02283	414.33069	77.11753	-946.51080	372.11249	35.97131	-889.04272	556.15234	45.52695	-981.73834	276.90027	1710.73108	-3101.86157	1973.17542	1023.53656	-3140.69434	2012.44275	1021.97260			 
286	2.850	-1070.55627	293.23730	1674.48828	-956.25287	303.66003	1681.70654	-1065.80444	191.28600	1602.32629	-944.81036	199.40854	1607.84314	-1023.85309	187.76492	1425.07983	-1010.91364	166.49974	1130.31470	-1020.58075	334.37891	1363.47327	-1027.45728	384.30756	1209.55347	-946.38489	142.99844	1227.68811	-1182.79041	276.27615	1389.00903	-1268.07922	278.68945	1204.74170	-1272.96252	305.09174	1053.47729	-1291.53210	394.22824	977.57550	-1267.58240	521.16852	923.62286	-1291.20715	478.16953	889.00250	-1297.56958	555.07568	854.46057	-868.44330	270.91788	1385.91040	-769.91949	217.14531	1183.60376	-771.10040	217.23366	1059.49158	-742.18115	237.10934	940.95514	-763.23431	307.48737	818.50891	-724.23395	264.26285	822.36597	-727.00006	295.71643	742.51654	-1123.66553	337.47748	922.21844	-906.97552	351.92267	933.80231	-1054.89050	155.22528	939.16302	-910.41339	166.76660	943.65179	-1167.07263	246.02165	594.54651	-1152.36145	203.82094	464.26328	-1163.67126	93.46941	308.97638	-1115.53723	-8.09103	110.71785	-1064.49487	-61.90864	98.61250	-1110.28796	120.22213	34.49915	-837.18378	358.21265	607.23370	-864.58551	403.79791	457.49371	-851.14410	391.78192	282.35529	-893.83545	415.05981	77.05279	-946.16260	372.44897	36.23915	-889.60065	556.95831	44.45048	-979.17224	283.31516	1711.35510	-3101.95068	1973.21753	1023.62164	-3140.74146	2012.63269	1022.12646			 
287	2.860	-1068.19067	299.38284	1675.26147	-953.93982	309.87790	1682.40845	-1063.35010	197.43971	1603.14319	-942.43890	205.61276	1608.60144	-1021.72186	193.98338	1425.67480	-1009.27899	173.36546	1130.87488	-1018.25903	340.72696	1364.40869	-1025.17334	391.03314	1210.56262	-944.40173	149.60435	1228.14307	-1180.47180	282.75760	1389.85913	-1265.98718	285.02042	1205.66760	-1270.58691	310.37802	1054.09998	-1289.40393	398.99927	977.62158	-1265.70898	525.54694	922.53369	-1289.31030	482.17093	888.32971	-1295.65015	558.81940	853.00220	-866.12970	277.01923	1386.69629	-767.98010	223.36974	1184.19263	-769.09961	223.99339	1060.12769	-740.28345	244.15044	941.60773	-761.63092	314.43753	819.07788	-722.47504	271.33313	823.09705	-725.39398	302.86621	743.22693	-1121.58459	344.98663	922.78925	-904.89130	358.99222	934.63422	-1053.42236	162.72655	940.10510	-908.86536	173.87216	945.05975	-1165.19421	254.33864	594.67615	-1151.11243	212.41631	464.32452	-1163.32605	99.49119	310.86389	-1115.96863	-5.43696	114.24013	-1064.98254	-59.39354	103.30218	-1110.31494	120.49854	34.54490	-836.01825	364.20679	607.58795	-863.70923	409.31641	457.62219	-849.75574	395.93793	282.42987	-893.61877	416.25238	77.05475	-945.87701	372.72589	36.35925	-890.12494	557.87213	43.59175	-976.87115	289.54324	1712.09729	-3101.74658	1973.20203	1023.48944	-3140.53418	2012.66479	1022.04846			 
288	2.870	-1065.80066	305.59741	1676.03369	-951.55017	316.09125	1683.16040	-1061.05444	203.56421	1604.00354	-940.11432	211.83025	1609.37842	-1019.60803	200.23212	1426.23523	-1007.53632	180.16882	1131.43567	-1015.90869	347.07050	1365.36328	-1022.86047	397.77408	1211.64539	-942.28418	156.35867	1228.59021	-1178.15283	289.24905	1390.77173	-1263.95251	291.45679	1206.58350	-1268.31189	315.60022	1054.79980	-1287.30139	403.56161	977.50067	-1263.82813	529.71008	921.32910	-1287.38782	485.99057	887.54633	-1293.74109	562.35754	851.48462	-863.85339	283.17429	1387.51892	-765.95337	229.67578	1184.90076	-767.12250	230.66396	1060.88110	-738.47809	251.14621	942.34021	-759.97998	321.78513	820.07050	-720.72302	278.47522	823.82690	-723.74182	310.20880	744.04700	-1119.34619	352.44968	923.40875	-902.70703	365.89145	935.48016	-1051.91199	170.20061	941.01843	-907.27496	180.98763	946.42926	-1163.33923	263.14673	594.81549	-1149.76758	221.64742	464.36835	-1162.98157	106.11954	312.84122	-1116.70459	-2.40966	118.05807	-1065.64221	-56.57455	108.44137	-1110.26599	120.91634	34.63531	-834.62061	370.23734	608.10736	-862.95050	414.59384	457.74915	-849.05988	399.94815	282.38043	-893.59436	417.00977	76.97242	-945.94653	372.63272	36.73856	-890.61395	558.66815	42.87482	-974.23834	295.80432	1712.95972	-3101.92505	1973.15039	1023.51892	-3140.59546	2012.48486	1022.02649			 
289	2.880	-1063.59277	311.74677	1676.83667	-949.52844	322.17041	1683.80396	-1058.70215	209.72212	1604.83276	-937.71680	218.05745	1610.20068	-1017.43414	206.51682	1426.81201	-1005.80347	186.87099	1132.00842	-1013.63153	353.44650	1366.35107	-1020.53961	404.52582	1212.74756	-940.13116	163.00620	1229.16052	-1175.90625	295.72479	1391.64185	-1261.91626	297.87054	1207.46509	-1266.04517	320.70712	1055.44568	-1285.25244	407.76065	977.24585	-1261.96533	533.66931	920.00006	-1285.43420	489.59415	886.61310	-1291.80322	565.69141	849.83917	-861.80524	289.40973	1388.36572	-763.87634	236.02792	1185.66833	-765.02954	237.42345	1061.63464	-736.54468	258.14453	943.15869	-758.34888	329.12256	821.19592	-719.00763	286.06772	824.73248	-722.09821	317.82227	744.99518	-1117.07349	359.94724	924.19611	-900.47894	372.95187	936.36505	-1050.36401	177.57541	941.92902	-905.59332	187.94478	947.45135	-1161.62317	272.29086	594.95581	-1149.03296	231.23807	464.45245	-1162.45129	113.36257	314.92172	-1117.26208	0.92126	121.92129	-1066.29236	-53.20615	114.02268	-1110.26074	121.26363	34.69279	-833.37659	376.17667	608.47687	-861.86749	419.28436	457.70987	-848.74609	403.59882	282.37601	-893.62872	417.65005	76.91740	-945.66888	372.84091	36.96452	-891.14337	559.25293	42.32003	-972.19733	302.06085	1713.63171	-3102.00708	1973.02966	1024.01929	-3140.56470	2012.50964	1021.89716			 
